<svg xmlns="http://www.w3.org/2000/svg" width="1134" height="420.807" viewBox="0 0 1134 420.807">
  <g id="Group_1090" data-name="Group 1090" transform="translate(-92 -18)">
    <g id="Group_1088" data-name="Group 1088" transform="translate(304.139 192.432)">
      <path id="Path_1" data-name="Path 1" d="M114.786,316.036H81.916v93.374h32.87c28.714,0,49.551-19.633,49.551-46.687v-.255C164.336,335.565,143.5,316.036,114.786,316.036ZM94.992,328.329h19.794c21.248,0,36.092,14.147,36.092,34.394v.261c0,20.1-14.844,34.133-36.092,34.133H94.992Z" transform="translate(-81.916 -314.302)" fill="#0a93d4"/>
      <path id="Path_2" data-name="Path 2" d="M131.881,319.876c-19.1,0-33.513,15.618-33.513,36.34s14.966,36.334,34.806,36.334c11.72,0,20.547-4.015,28.621-13.011l.951-1.066-8.3-7.432-.956,1c-5.86,6.141-12.236,9-20.054,9-11.465,0-20.1-7.728-21.927-19.389h52.739l.11-1.309c.133-1.61.133-2.671.133-3.609C164.49,334.689,151.385,319.876,131.881,319.876Zm-.255,11.256c12.525,0,18.339,9.871,19.736,19.65H111.519C113.4,339.133,121.489,331.132,131.626,331.132Z" transform="translate(-3.011 -295.959)" fill="#0a93d4"/>
      <path id="Path_3" data-name="Path 3" d="M190.313,319.876c-9.784,0-17.458,3.934-23.393,12.009-4.579-7.768-12.178-12.009-21.631-12.009-9.992,0-16.044,4.669-20.176,9.738V321.3H112.3V391h12.815V351.431c0-11.389,7.233-19.656,17.2-19.656,9.877,0,15.777,6.911,15.777,18.492V391H170.78V351.043c0-13.307,8.572-19.268,17.075-19.268,10.259,0,15.91,6.662,15.91,18.746V391h12.815V348.2C216.581,330.727,206.513,319.876,190.313,319.876Z" transform="translate(63.798 -295.955)" fill="#0a93d4"/>
      <path id="Path_4" data-name="Path 4" d="M166.325,319.876c-19.1,0-33.513,15.618-33.513,36.34s14.965,36.334,34.805,36.334c11.72,0,20.541-4.015,28.621-13.011l.951-1.066-8.3-7.432-.956,1c-5.866,6.141-12.235,9-20.054,9-11.465,0-20.107-7.728-21.927-19.389h52.733l.11-1.309c.133-1.61.133-2.671.133-3.609C198.928,334.689,185.829,319.876,166.325,319.876Zm-.261,11.256c12.525,0,18.345,9.871,19.742,19.65H145.963C147.841,339.133,155.933,331.132,166.064,331.132Z" transform="translate(162.185 -295.959)" fill="#0a93d4"/>
      <path id="Path_5" data-name="Path 5" d="M181.031,319.876c-8.9,0-16.107,3.348-21.474,9.97V321.3H146.741V391h12.815V351.3c0-11.5,7.662-19.528,18.629-19.528,10.85,0,17.075,6.836,17.075,18.746V391h12.815V348.065C208.075,330.941,197.457,319.876,181.031,319.876Z" transform="translate(228.99 -295.955)" fill="#0a93d4"/>
      <path id="Path_6" data-name="Path 6" d="M181.622,316.639H168.807v20.172h-9.32v11.644h9.32v38.918c0,12.907,7.4,20.311,20.315,20.311a26.558,26.558,0,0,0,12.688-3.007l.771-.4V392.6l-2.046.985a19.567,19.567,0,0,1-9.088,2.19c-6.706,0-9.824-3.082-9.824-9.7V348.455h21.214V336.811H181.622Z" transform="translate(290.121 -311.425)" fill="#0a93d4"/>
      <rect id="Rectangle_1" data-name="Rectangle 1" width="12.815" height="69.704" transform="translate(508.608 25.339)" fill="#0a93d4"/>
      <rect id="Rectangle_2" data-name="Rectangle 2" width="14.239" height="13.843" transform="translate(507.961 0)" fill="#0a93d4"/>
      <path id="Path_7" data-name="Path 7" d="M206.209,319.943c-10.682,0-18.287,2.792-24.911,5.816l-1.2.55,3.959,10.833,1.4-.643c7.123-3.261,13.018-4.652,19.718-4.652,8.375,0,18.368,2.891,18.368,16.673v.2a70.922,70.922,0,0,0-19.017-2.4c-18.8,0-30.018,8.7-30.018,23.282v.255c0,14.6,13.279,22.246,26.4,22.246,10.827,0,18.049-4.432,22.639-9.037v7.618h12.682v-42.29c0-8.922-2.417-15.682-7.4-20.664C223.724,322.637,215.906,319.943,206.209,319.943Zm-3.362,61.291c-7.413,0-15.394-3.719-15.394-11.893v-.261c0-7.415,6.944-12.021,18.113-12.021a66.837,66.837,0,0,1,18.107,2.5v5.133C223.672,374.12,214.717,381.234,202.847,381.234Z" transform="translate(362.172 -295.639)" fill="#0a93d4"/>
      <path id="Path_8" data-name="Path 8" d="M267.265,387.285c-7.958,7.6-15.812,12.664-28.25,12.664-18.861,0-33.635-15.792-33.635-35.946v-.255c0-20.345,14.461-35.691,33.635-35.691,10.381,0,18.6,3.6,27.479,12.027l1.043.99,8.938-9.594-1.032-.967c-8.126-7.658-18.147-14.744-36.3-14.744-26.482,0-47.221,21.185-47.221,48.233v.261c0,27.349,20.136,47.973,46.832,47.973,18.617,0,29.27-8.255,37.24-16.325l1.008-1.02-8.735-8.562Z" transform="translate(445.681 -315.582)" fill="#0a93d4"/>
      <path id="Path_9" data-name="Path 9" d="M239.626,319.943c-10.682,0-18.287,2.792-24.912,5.816l-1.2.55,3.953,10.833,1.409-.643c7.123-3.261,13.018-4.652,19.712-4.652,8.381,0,18.368,2.891,18.368,16.673v.2a70.842,70.842,0,0,0-19.011-2.4c-18.8,0-30.018,8.7-30.018,23.282v.255c0,14.6,13.279,22.246,26.4,22.246,10.827,0,18.049-4.432,22.634-9.037v7.618h12.687v-42.29c0-8.922-2.423-15.682-7.4-20.664C257.142,322.637,249.323,319.943,239.626,319.943Zm-3.362,61.291c-7.413,0-15.394-3.719-15.394-11.893v-.261c0-7.415,6.938-12.021,18.107-12.021a66.852,66.852,0,0,1,18.113,2.5v5.133C257.089,374.12,248.134,381.234,236.264,381.234Z" transform="translate(522.443 -295.639)" fill="#0a93d4"/>
      <path id="Path_10" data-name="Path 10" d="M234.537,334.268V321.1H221.722v69.708h12.815V362.741c0-17.75,9.854-29.22,25.1-29.22h2.2V319.994l-1.368-.052C249.914,319.507,240.536,324.779,234.537,334.268Z" transform="translate(588.605 -295.761)" fill="#0a93d4"/>
      <path id="Path_11" data-name="Path 11" d="M263.065,319.876c-19.1,0-33.507,15.618-33.507,36.34s14.96,36.334,34.805,36.334c11.714,0,20.541-4.015,28.615-13.011l.956-1.066-8.306-7.432-.95,1c-5.866,6.141-12.236,9-20.06,9-11.459,0-20.1-7.728-21.921-19.389H295.43l.11-1.309c.133-1.61.133-2.671.133-3.609C295.674,334.689,282.569,319.876,263.065,319.876Zm-.255,11.256c12.525,0,18.339,9.871,19.742,19.65H242.7C244.587,339.133,252.673,331.132,262.81,331.132Z" transform="translate(626.187 -295.959)" fill="#0a93d4"/>
      <path id="Path_12" data-name="Path 12" d="M122.415,374.9v-.208c0-21.11,15.789-38.594,37.762-38.594,13.545,0,21.654,4.8,29.12,11.829l-5.761,6.187c-6.295-5.973-13.331-10.236-23.468-10.236-16.53,0-28.9,13.434-28.9,30.6v.215c0,17.269,12.479,30.807,28.9,30.807,10.242,0,16.959-3.945,24.112-10.769l5.547,5.44c-7.79,7.89-16.322,13.115-29.867,13.115C138.308,413.28,122.415,396.33,122.415,374.9Z" transform="translate(112.32 -218.753)" fill="#0a93d4"/>
      <path id="Path_13" data-name="Path 13" d="M135.555,368.479v-.214a28.746,28.746,0,0,1,57.491-.214v.214a28.625,28.625,0,0,1-28.905,28.786A28.244,28.244,0,0,1,135.555,368.479Zm49.064,0v-.214c0-11.835-8.851-21.539-20.478-21.539-11.946,0-20.164,9.7-20.164,21.324v.214c0,11.836,8.752,21.429,20.373,21.429C176.3,389.694,184.619,380.1,184.619,368.479Z" transform="translate(175.341 -202.55)" fill="#0a93d4"/>
      <path id="Path_14" data-name="Path 14" d="M148.161,335.761h8.213v77.831h-8.213Z" transform="translate(235.8 -220.336)" fill="#0a93d4"/>
      <path id="Path_15" data-name="Path 15" d="M153,335.761h8.213v77.831H153Z" transform="translate(259.008 -220.336)" fill="#0a93d4"/>
      <path id="Path_16" data-name="Path 16" d="M156.993,379.512V379.3c0-11.83,9.6-18.017,23.573-18.017a57.845,57.845,0,0,1,16.855,2.346v-1.7c0-9.808-5.97-14.929-16.316-14.929a38.37,38.37,0,0,0-16.751,3.945l-2.452-6.714c6.08-2.775,11.946-4.693,20.055-4.693,7.784,0,13.864,2.132,17.811,6.077,3.843,3.841,5.761,9.17,5.761,16.2v33.693h-8.109V387.3c-3.837,4.9-10.132,9.379-19.84,9.379C167.235,396.677,156.993,390.815,156.993,379.512Zm40.538-4.264v-5.115a56.652,56.652,0,0,0-16.107-2.346c-10.242,0-16.107,4.478-16.107,11.088v.214c0,6.928,6.4,10.978,13.864,10.978C189.318,390.067,197.531,383.991,197.531,375.249Z" transform="translate(278.159 -202.286)" fill="#0a93d4"/>
      <path id="Path_17" data-name="Path 17" d="M176.579,403.036v10.555h-8.213V335.761h8.213v33.8c4.48-6.61,10.989-12.258,21.121-12.258,13.227,0,26.349,10.445,26.349,28.572v.215c0,18.017-13.012,28.676-26.349,28.676C187.458,414.762,180.845,409.218,176.579,403.036Zm39.042-16.846v-.215c0-13.005-8.961-21.318-19.411-21.318-10.242,0-19.95,8.632-19.95,21.214v.215c0,12.791,9.708,21.318,19.95,21.318C206.875,407.4,215.621,399.52,215.621,386.19Z" transform="translate(332.705 -220.341)" fill="#0a93d4"/>
      <path id="Path_18" data-name="Path 18" d="M180,368.479v-.214a28.746,28.746,0,0,1,57.491-.214v.214a28.625,28.625,0,0,1-28.905,28.786A28.244,28.244,0,0,1,180,368.479Zm49.064,0v-.214c0-11.835-8.851-21.539-20.478-21.539-11.951,0-20.164,9.7-20.164,21.324v.214c0,11.836,8.746,21.429,20.373,21.429C220.743,389.694,229.061,380.1,229.061,368.479Z" transform="translate(388.488 -202.55)" fill="#0a93d4"/>
      <path id="Path_19" data-name="Path 19" d="M192.474,340.488h8.213v14.4c4.051-9.17,12.05-15.78,22.506-15.352v8.846h-.643c-12.05,0-21.863,8.637-21.863,25.27V395.61h-8.213Z" transform="translate(448.329 -202.384)" fill="#0a93d4"/>
      <path id="Path_20" data-name="Path 20" d="M198.749,379.512V379.3c0-11.83,9.6-18.017,23.573-18.017a57.876,57.876,0,0,1,16.855,2.346v-1.7c0-9.808-5.976-14.929-16.322-14.929a38.363,38.363,0,0,0-16.745,3.945l-2.452-6.714c6.08-2.775,11.946-4.693,20.049-4.693,7.79,0,13.87,2.132,17.817,6.077,3.837,3.841,5.761,9.17,5.761,16.2v33.693h-8.109V387.3a24.191,24.191,0,0,1-19.84,9.379C208.991,396.677,198.749,390.815,198.749,379.512Zm40.532-4.264v-5.115a56.586,56.586,0,0,0-16.107-2.346c-10.236,0-16.1,4.478-16.1,11.088v.214c0,6.928,6.4,10.978,13.864,10.978C231.068,390.067,239.281,383.991,239.281,375.249Z" transform="translate(478.424 -202.286)" fill="#0a93d4"/>
      <path id="Path_21" data-name="Path 21" d="M216.882,393.959V360.7H209.2v-7.253h7.68V336.81h8.213v16.632h17.492V360.7H225.095v32.2c0,6.714,3.732,9.165,9.28,9.165a17.282,17.282,0,0,0,8-1.917v7.039a20.7,20.7,0,0,1-9.917,2.34C223.6,409.519,216.882,405.151,216.882,393.959Z" transform="translate(528.558 -215.321)" fill="#0a93d4"/>
      <path id="Path_22" data-name="Path 22" d="M217.5,336.037h9.39V345.1H217.5Zm.539,21.11h8.213v55.121H218.04Z" transform="translate(568.36 -219.016)" fill="#0a93d4"/>
      <path id="Path_23" data-name="Path 23" d="M221.366,339.681h9.065l18.559,45.736,18.669-45.736h8.851l-24,55.545h-7.257Z" transform="translate(586.897 -201.58)" fill="#0a93d4"/>
      <path id="Path_24" data-name="Path 24" d="M259.695,389.908c7.575,0,12.908-3.093,17.388-7.786l5.124,4.588c-5.547,6.182-12.27,10.341-22.721,10.341-15.151,0-27.52-11.621-27.52-28.786,0-15.995,11.2-28.786,26.453-28.786,16.316,0,25.706,13.005,25.706,29.209,0,.748,0,1.6-.11,2.879H240.283C241.46,383.188,249.992,389.908,259.695,389.908ZM275.8,364.957c-.956-10.022-6.718-18.549-17.6-18.549-9.494,0-16.745,7.89-17.922,18.549Z" transform="translate(637.736 -202.55)" fill="#0a93d4"/>
    </g>
    <path id="Path_77" data-name="Path 77" d="M327.891,637.986A158.329,158.329,0,0,1,282.8,656.615c-39.536,9.78-78.571,7.945-116.3-7.459-52.391-21.385-88.365-59-106.693-112.325-15.432-44.9-13.255-89.691,5.219-133.385C103.386,312.708,205.439,266.409,299.3,296.869a113.485,113.485,0,0,1,16.735,6.6c-57.252-18.914-111.7-13.587-162.918,18.424C86.135,363.761,53.512,447.36,74.458,523.171c14.089,50.984,44.765,89.3,92.07,113.135,51.374,25.888,104.12,26.016,157.008,3.606C325,639.294,326.441,638.631,327.891,637.986Z" transform="translate(81.968 -223.845)" fill="#8dc642"/>
    <path id="Path_78" data-name="Path 78" d="M446.328,371.772c-42.592-50.028-96.489-78.066-162.186-81.829-49.929-2.861-96.056,10.051-137.6,37.9-45.9,30.766-76.569,73.01-91.352,126.244-14.77,53.156-9.159,104.752,14.42,155.009-10.07-9.012-25.448-59.8-27.924-90.9a218.81,218.81,0,0,1,12.947-94.084A223.485,223.485,0,0,1,255.021,277.8C349.669,273.9,417.5,327.573,446.328,371.772Z" transform="translate(51.035 -259.602)" fill="#0a93d4"/>
    <path id="Path_79" data-name="Path 79" d="M301.194,533.894a143.433,143.433,0,0,1-31.684,19.1c-21.029,9.247-43.182,12.181-65.877,11.409-25.535-.865-48.083-10.369-68.726-24.919-.308-.161-.8-.267-.492-.713.092-.138.654.042,1,.069,1.381.464,2.78.9,4.138,1.407q4.688,1.766,9.394,3.234a126,126,0,0,0,59.281,6.1q5.109-.69,10.066-1.78,4.481-.884,8.975-2.112a81.206,81.206,0,0,0,19.5-7.765q5.344-2.609,10.379-5.686a114.737,114.737,0,0,1-17.03,6.794c-22.567,6.017-45.308,6.569-68.233-.11a117.823,117.823,0,0,1-28.826-12.637A116.665,116.665,0,0,1,119.157,348.9l.041-.042a116.8,116.8,0,0,1,179.082,7.973,126.546,126.546,0,0,0-218.747,8.018c-16.3,28.08-21.269,60.7-14.521,97.714,6.154,33.779,23.39,61.822,50.845,82.335,49.492,36.977,102.316,40.45,157.059,12.057a106.141,106.141,0,0,0,31.813-24.984,4.006,4.006,0,0,0-.294-.331C303.348,532.39,302.22,533.08,301.194,533.894Z" transform="translate(127.13 -188.827)" fill="#f8ba2d"/>
  </g>
</svg>
