<svg id="Layer_1" data-name="Layer 1" xmlns="http://www.w3.org/2000/svg" viewBox="0 0 3942.92 1582.52"><defs><style>.cls-1{fill:#fff;}</style></defs><title>TK_01_textonly - italic</title><path class="cls-1" d="M128.54,1569,411.61,231.63H155.29l49-222.89H966.61l-49,222.89H661.25L378.18,1569Z" transform="translate(-128.54 -8.74)"/><path class="cls-1" d="M1492.65,704.16c0,33.43-4.46,71.32-13.37,111.45l-49,236.26H959.94l-37.89,176.08c-4.46,22.29-6.69,42.35-6.69,58,0,64.64,37.89,95.84,115.9,95.84,64.64,0,104.76-42.35,124.82-129.28l11.14-51.27h229.58l-11.14,53.49c-44.58,216.2-173.85,336.57-367.77,336.57-220.66,0-341-109.22-341-294.22,0-35.66,4.46-73.55,13.37-115.9L783.86,742c44.58-214,173.85-332.11,367.77-332.11C1363.38,409.94,1492.65,514.7,1492.65,704.16ZM1000.06,864.64h231.81l20.06-95.84c4.46-20.06,6.69-35.66,6.69-51.26,0-64.64-35.66-98.07-109.22-98.07-64.64,0-104.76,42.35-124.82,127Z" transform="translate(-128.54 -8.74)"/><path class="cls-1" d="M2466.67,432.23,2107.82,866.87,2232.64,1569H1991.91l-80.24-465.84-136,167.17L1711.07,1569H1470.35L1802.46,8.74h240.72l-185,864.82,329.88-441.32Z" transform="translate(-128.54 -8.74)"/><path class="cls-1" d="M3231.18,637.29c0,42.35-4.46,84.7-15.6,127L3044,1569H2803.23l169.4-791.26a255.82,255.82,0,0,0,8.92-69.1c0-60.18-29-89.16-86.93-89.16-73.55,0-120.36,53.49-142.65,158.25L2584.8,1569H2344.08L2582.57,432.23h205.06l-20.06,118.13c60.18-93.61,138.19-140.42,236.26-140.42C3146.48,409.94,3231.18,488,3231.18,637.29Z" transform="translate(-128.54 -8.74)"/><path class="cls-1" d="M4071.46,704.16c0,33.43-4.46,71.32-13.37,111.45l-49,236.26h-470.3l-37.89,176.08c-4.46,22.29-6.69,42.35-6.69,58,0,64.64,37.89,95.84,115.9,95.84,64.64,0,104.76-42.35,124.82-129.28L3746,1201.2h229.58l-11.14,53.49c-44.58,216.2-173.85,336.57-367.77,336.57-220.66,0-341-109.22-341-294.22,0-35.66,4.46-73.55,13.37-115.9L3362.67,742c44.58-214,173.85-332.11,367.77-332.11C3942.19,409.94,4071.46,514.7,4071.46,704.16ZM3578.87,864.64h231.81l20.06-95.84c4.46-20.06,6.69-35.66,6.69-51.26,0-64.64-35.66-98.07-109.22-98.07-64.64,0-104.76,42.35-124.82,127Z" transform="translate(-128.54 -8.74)"/></svg>